<?xml version="1.0" encoding="UTF-8"?>
<svg xmlns="http://www.w3.org/2000/svg" xmlns:xlink="http://www.w3.org/1999/xlink" viewBox="0 0 100 100" width="100px" height="100px">
<g id="surface183627019">
<path style=" stroke:none;fill-rule:nonzero;fill:rgb(80.000001%,80.000001%,80.000001%);fill-opacity:1;" d="M 50 50.5 C 49.722656 50.5 49.5 50.277344 49.5 50 C 49.5 49.722656 49.722656 49.5 50 49.5 C 50.277344 49.5 50.5 49.722656 50.5 50 C 50.5 50.277344 50.277344 50.5 50 50.5 Z M 50 50.5 "/>
<path style=" stroke:none;fill-rule:nonzero;fill:rgb(100%,69.803923%,69.803923%);fill-opacity:1;" d="M 87.214844 56.710938 C 88.351562 54.554688 89 52.105469 89 49.5 C 89 42.878906 84.839844 37.242188 79 35.023438 C 79 35.015625 79 35.007812 79 35 C 79 23.402344 69.597656 14 58 14 C 48.214844 14 40.019531 20.699219 37.6875 29.757812 C 36.210938 29.273438 34.636719 29 33 29 C 25.308594 29 18.976562 34.792969 18.109375 42.253906 C 12.90625 43.351562 9 47.96875 9 53.5 C 9 59.851562 14.148438 65 20.5 65 C 20.675781 65 20.851562 64.988281 21.027344 64.976562 C 21.023438 65.152344 21 65.324219 21 65.5 C 21 76.820312 30.179688 86 41.5 86 C 47.9375 86 53.675781 83.027344 57.433594 78.386719 C 59.613281 80.609375 62.640625 82 66 82 C 70.648438 82 74.675781 79.351562 76.664062 75.480469 C 77.71875 75.816406 78.835938 76 80 76 C 86.074219 76 91 71.074219 91 65 C 91 61.6875 89.53125 58.726562 87.214844 56.710938 Z M 87.214844 56.710938 "/>
<path style=" stroke:none;fill-rule:nonzero;fill:rgb(99.215686%,98.823529%,93.725491%);fill-opacity:1;" d="M 71 72 L 65.25 72 C 62.765625 72.75 60.75 70.734375 60.75 68.25 C 60.75 65.917969 62.53125 64.019531 64.804688 63.796875 C 64.78125 63.613281 64.75 63.4375 64.75 63.25 C 64.75 60.765625 66.765625 58.75 69.25 58.75 C 70.6875 58.75 71.953125 59.4375 72.777344 60.484375 C 72.917969 57.851562 75.078125 55.75 77.75 55.75 C 80.511719 55.75 82.75 57.988281 82.75 60.75 C 82.75 61.195312 82.671875 61.621094 82.5625 62.03125 C 83.203125 61.253906 84.164062 60.75 85.25 60.75 C 87.03125 60.75 88.484375 62.085938 88.703125 63.804688 C 88.886719 63.78125 89.0625 63.75 89.25 63.75 C 91.734375 63.75 93.75 65.765625 93.75 68.25 C 93.75 70.734375 91.734375 72.75 89.25 72 L 74 72 L 74 73 L 71 73 Z M 71 72 "/>
<path style=" stroke:none;fill-rule:nonzero;fill:rgb(27.843139%,16.862746%,16.078432%);fill-opacity:1;" d="M 77.5 55 C 80.53125 55 83 57.46875 83 60.5 C 83 60.515625 83 60.53125 83 60.546875 C 83.601562 60.191406 84.289062 60 85 60 C 86.832031 60 88.410156 61.261719 88.859375 63.003906 C 88.90625 63.003906 88.953125 63 89 63 C 92.097656 63 94.550781 65.835938 93.894531 69.046875 C 93.414062 71.398438 91.203125 73 88.804688 73 L 74.125 73 C 73.847656 73 73.625 72.777344 73.625 72.5 C 73.625 72.222656 73.847656 72 74.125 72 L 88.84375 72 C 90.761719 72 92.53125 70.71875 92.914062 68.835938 C 93.4375 66.265625 91.480469 64 89 64 C 88.882812 64 88.769531 64.015625 88.65625 64.03125 L 88.515625 64.050781 C 88.496094 64.054688 88.476562 64.054688 88.453125 64.054688 C 88.207031 64.054688 87.992188 63.871094 87.960938 63.617188 C 87.769531 62.125 86.496094 61 85 61 C 84.113281 61 83.277344 61.402344 82.699219 62.101562 C 82.601562 62.21875 82.457031 62.28125 82.3125 62.28125 C 82.234375 62.28125 82.15625 62.265625 82.085938 62.226562 C 81.875 62.117188 81.769531 61.878906 81.832031 61.652344 C 81.992188 61.054688 82.03125 60.585938 81.976562 60.105469 C 81.738281 57.976562 80.019531 56.195312 77.886719 56.015625 C 75.335938 55.800781 73.160156 57.742188 73.027344 60.261719 C 73.015625 60.46875 72.878906 60.648438 72.679688 60.710938 C 72.628906 60.726562 72.578125 60.734375 72.527344 60.734375 C 72.375 60.734375 72.230469 60.667969 72.132812 60.542969 C 71.363281 59.5625 70.222656 59 69 59 C 66.792969 59 65 60.792969 65 63 C 65 63.117188 65.015625 63.230469 65.03125 63.34375 L 65.050781 63.484375 C 65.066406 63.617188 65.027344 63.753906 64.945312 63.855469 C 64.859375 63.960938 64.738281 64.027344 64.605469 64.042969 C 62.253906 64.277344 60.5625 66.472656 61.101562 68.90625 C 61.507812 70.761719 63.273438 72 65.171875 72 L 71.125 72 C 71.402344 72 71.625 72.222656 71.625 72.5 C 71.625 72.777344 71.402344 73 71.125 73 L 65.1875 73 C 62.71875 73 60.480469 71.296875 60.070312 68.863281 C 59.609375 66.097656 61.414062 63.640625 64.003906 63.121094 C 64 63.082031 64 63.039062 64 63 C 64 60.242188 66.242188 58 69 58 C 70.175781 58 71.292969 58.414062 72.183594 59.164062 C 72.78125 56.761719 74.945312 55 77.5 55 Z M 77.5 55 "/>
<path style=" stroke:none;fill-rule:nonzero;fill:rgb(27.843139%,16.862746%,16.078432%);fill-opacity:1;" d="M 79.25 62.25 C 80.652344 62.25 81.859375 63.25 82.164062 64.589844 C 82.53125 64.367188 82.949219 64.25 83.375 64.25 C 84.578125 64.25 85.574219 65.148438 85.726562 66.316406 C 85.929688 66.273438 86.125 66.25 86.3125 66.25 C 87.84375 66.25 89.125 67.449219 89.230469 68.980469 C 89.238281 69.121094 89.136719 69.238281 89 69.25 C 88.992188 69.25 88.988281 69.25 88.980469 69.25 C 88.851562 69.25 88.742188 69.148438 88.730469 69.015625 C 88.644531 67.746094 87.582031 66.75 86.3125 66.75 C 86.085938 66.75 85.84375 66.789062 85.574219 66.875 C 85.554688 66.882812 85.53125 66.886719 85.507812 66.886719 C 85.453125 66.886719 85.398438 66.867188 85.351562 66.832031 C 85.289062 66.785156 85.25 66.703125 85.25 66.621094 C 85.25 65.589844 84.410156 64.746094 83.375 64.746094 C 82.929688 64.746094 82.488281 64.914062 82.144531 65.222656 C 82.097656 65.261719 82.039062 65.285156 81.980469 65.285156 C 81.945312 65.285156 81.914062 65.277344 81.886719 65.265625 C 81.796875 65.230469 81.738281 65.148438 81.730469 65.054688 C 81.628906 63.761719 80.539062 62.746094 79.253906 62.746094 C 79.042969 62.746094 78.828125 62.78125 78.570312 62.855469 C 78.546875 62.863281 78.523438 62.863281 78.5 62.863281 C 78.390625 62.863281 78.292969 62.792969 78.261719 62.683594 C 78.222656 62.550781 78.300781 62.410156 78.433594 62.375 C 78.734375 62.289062 78.992188 62.25 79.25 62.25 Z M 65.367188 63.75 C 66.691406 63.75 67.875 64.648438 68.242188 65.933594 C 68.277344 66.066406 68.203125 66.203125 68.070312 66.242188 C 68.046875 66.246094 68.023438 66.25 68 66.25 C 67.890625 66.25 67.792969 66.179688 67.761719 66.070312 C 67.457031 64.996094 66.472656 64.25 65.367188 64.25 C 65.25 64.25 65.136719 64.265625 65.027344 64.28125 C 65.015625 64.28125 65.003906 64.28125 64.992188 64.28125 C 64.871094 64.28125 64.761719 64.191406 64.746094 64.066406 C 64.726562 63.929688 64.820312 63.804688 64.960938 63.785156 C 65.09375 63.765625 65.226562 63.75 65.367188 63.75 Z M 65.367188 63.75 "/>
<path style=" stroke:none;fill-rule:nonzero;fill:rgb(100%,100%,100%);fill-opacity:1;" d="M 83.40625 48 L 73.5 48 C 73.222656 48 73 47.777344 73 47.5 C 73 47.222656 73.222656 47 73.5 47 L 83.40625 47 C 83.679688 47 83.90625 47.222656 83.90625 47.5 C 83.90625 47.777344 83.683594 48 83.40625 48 Z M 86.5 48 L 85.5 48 C 85.222656 48 85 47.777344 85 47.5 C 85 47.222656 85.222656 47 85.5 47 L 86.5 47 C 86.777344 47 87 47.222656 87 47.5 C 87 47.777344 86.777344 48 86.5 48 Z M 91.492188 50 L 82.5 50 C 82.222656 50 82 49.777344 82 49.5 C 82 49.222656 82.222656 49 82.5 49 L 91.492188 49 C 91.765625 49 91.992188 49.222656 91.992188 49.5 C 91.992188 49.777344 91.765625 50 91.492188 50 Z M 80.5 50 L 79.5 50 C 79.222656 50 79 49.777344 79 49.5 C 79 49.222656 79.222656 49 79.5 49 L 80.5 49 C 80.777344 49 81 49.222656 81 49.5 C 81 49.777344 80.777344 50 80.5 50 Z M 77.5 50 L 75.5 50 C 75.222656 50 75 49.777344 75 49.5 C 75 49.222656 75.222656 49 75.5 49 L 77.5 49 C 77.777344 49 78 49.222656 78 49.5 C 78 49.777344 77.777344 50 77.5 50 Z M 83.5 52 L 81.5 52 C 81.222656 52 81 51.777344 81 51.5 C 81 51.222656 81.222656 51 81.5 51 L 83.5 51 C 83.777344 51 84 51.222656 84 51.5 C 84 51.777344 83.777344 52 83.5 52 Z M 86.5 43 C 86.324219 43 85.675781 43 85.5 43 C 85.222656 43 85 43.222656 85 43.5 C 85 43.777344 85.222656 44 85.5 44 C 85.675781 44 86.324219 44 86.5 44 C 86.777344 44 87 43.777344 87 43.5 C 87 43.222656 86.777344 43 86.5 43 Z M 86.5 45 C 86.324219 45 81.675781 45 81.5 45 C 81.222656 45 81 45.222656 81 45.5 C 81 45.777344 81.222656 46 81.5 46 C 81.675781 46 86.324219 46 86.5 46 C 86.777344 46 87 45.777344 87 45.5 C 87 45.222656 86.777344 45 86.5 45 Z M 91.5 47 C 91.324219 47 88.675781 47 88.5 47 C 88.222656 47 88 47.222656 88 47.5 C 88 47.777344 88.222656 48 88.5 48 C 88.675781 48 91.324219 48 91.5 48 C 91.777344 48 92 47.777344 92 47.5 C 92 47.222656 91.777344 47 91.5 47 Z M 36 80 L 26 80 C 25.722656 80 25.5 79.777344 25.5 79.5 C 25.5 79.222656 25.722656 79 26 79 L 36 79 C 36.277344 79 36.5 79.222656 36.5 79.5 C 36.5 79.777344 36.277344 80 36 80 Z M 40 80 L 38 80 C 37.722656 80 37.5 79.777344 37.5 79.5 C 37.5 79.222656 37.722656 79 38 79 L 40 79 C 40.277344 79 40.5 79.222656 40.5 79.5 C 40.5 79.777344 40.277344 80 40 80 Z M 45 82 L 35 82 C 34.722656 82 34.5 81.777344 34.5 81.5 C 34.5 81.222656 34.722656 81 35 81 L 45 81 C 45.277344 81 45.5 81.222656 45.5 81.5 C 45.5 81.777344 45.277344 82 45 82 Z M 33 82 L 32 82 C 31.722656 82 31.5 81.777344 31.5 81.5 C 31.5 81.222656 31.722656 81 32 81 L 33 81 C 33.277344 81 33.5 81.222656 33.5 81.5 C 33.5 81.777344 33.277344 82 33 82 Z M 29.875 82 L 28 82 C 27.722656 82 27.5 81.777344 27.5 81.5 C 27.5 81.222656 27.722656 81 28 81 L 29.875 81 C 30.152344 81 30.375 81.222656 30.375 81.5 C 30.375 81.777344 30.152344 82 29.875 82 Z M 39 78 L 34 78 C 33.722656 78 33.5 77.777344 33.5 77.5 C 33.5 77.222656 33.722656 77 34 77 L 39 77 C 39.277344 77 39.5 77.222656 39.5 77.5 C 39.5 77.777344 39.277344 78 39 78 Z M 36 84 L 34 84 C 33.722656 84 33.5 83.777344 33.5 83.5 C 33.5 83.222656 33.722656 83 34 83 L 36 83 C 36.277344 83 36.5 83.222656 36.5 83.5 C 36.5 83.777344 36.277344 84 36 84 Z M 36 84 "/>
<path style=" stroke:none;fill-rule:nonzero;fill:rgb(99.215686%,98.823529%,93.725491%);fill-opacity:1;" d="M 27 37 C 27 37 25.183594 37 23.25 37 C 21.316406 37 19.75 35.433594 19.75 33.5 C 19.75 31.71875 21.085938 30.265625 22.804688 30.046875 C 22.777344 29.867188 22.75 29.6875 22.75 29.5 C 22.75 27.566406 24.316406 26 26.25 26 C 27.28125 26 28.199219 26.453125 28.839844 27.164062 C 29.226562 25.355469 30.828125 24 32.75 24 C 34.960938 24 36.75 25.789062 36.75 28 C 36.75 28.191406 36.71875 28.375 36.695312 28.558594 C 37.121094 28.214844 37.65625 28 38.25 28 C 39.476562 28 40.496094 28.886719 40.703125 30.054688 C 40.882812 30.027344 41.0625 30 41.25 30 C 43.183594 30 44.75 31.566406 44.75 33.5 C 44.75 35.433594 43.183594 37 41.25 37 C 39.316406 37 34 37 34 37 L 34 38 L 27 38 Z M 27 37 "/>
<path style=" stroke:none;fill-rule:nonzero;fill:rgb(27.843139%,16.862746%,16.078432%);fill-opacity:1;" d="M 25 32.5 C 25.136719 32.5 25.25 32.386719 25.25 32.25 C 25.25 31.027344 24.253906 30.03125 23.03125 30.03125 C 22.996094 30.039062 22.296875 30.03125 21.789062 30.167969 C 21.65625 30.203125 21.574219 30.339844 21.613281 30.472656 C 21.648438 30.609375 21.785156 30.6875 21.917969 30.648438 C 22.363281 30.53125 23.019531 30.53125 23.03125 30.53125 C 23.980469 30.53125 24.75 31.304688 24.75 32.25 C 24.75 32.386719 24.863281 32.5 25 32.5 Z M 31.5 37 C 31.222656 37 31 37.222656 31 37.5 C 31 37.777344 31.222656 38 31.5 38 C 31.777344 38 32 37.777344 32 37.5 C 32 37.222656 31.777344 37 31.5 37 Z M 31.5 37 "/>
<path style=" stroke:none;fill-rule:nonzero;fill:rgb(27.843139%,16.862746%,16.078432%);fill-opacity:1;" d="M 19.417969 35.15625 C 19.921875 36.890625 21.621094 38 23.425781 38 L 26.75 38 C 27.027344 38 27.25 37.777344 27.25 37.5 C 27.25 37.222656 27.027344 37 26.75 37 L 23.355469 37 C 22.113281 37 20.921875 36.300781 20.46875 35.140625 C 19.714844 33.203125 21.003906 31.28125 22.867188 31.039062 C 23.003906 31.023438 23.121094 30.953125 23.203125 30.84375 C 23.285156 30.738281 23.320312 30.601562 23.296875 30.46875 C 23.273438 30.3125 23.25 30.160156 23.25 30 C 23.25 28.347656 24.597656 27 26.25 27 C 27.101562 27 27.886719 27.355469 28.46875 28 C 28.59375 28.140625 28.789062 28.199219 28.96875 28.148438 C 29.152344 28.097656 29.289062 27.953125 29.328125 27.769531 C 29.671875 26.164062 31.109375 25 32.75 25 C 34.679688 25 36.25 26.570312 36.25 28.5 C 36.25 28.644531 36.230469 28.78125 36.210938 28.917969 C 36.179688 29.121094 36.273438 29.355469 36.449219 29.457031 C 36.628906 29.558594 36.847656 29.574219 37.007812 29.449219 C 37.371094 29.15625 37.800781 29 38.25 29 C 39.214844 29 40.042969 29.691406 40.214844 30.644531 C 40.261719 30.910156 40.507812 31.089844 40.78125 31.050781 C 40.9375 31.023438 41.089844 31 41.25 31 C 43.21875 31 44.753906 32.90625 44.097656 34.972656 C 43.699219 36.21875 42.460938 37 41.152344 37 L 33.75 37 C 33.472656 37 33.25 37.222656 33.25 37.5 C 33.25 37.777344 33.472656 38 33.75 38 L 41.09375 38 C 43.011719 38 44.78125 36.71875 45.164062 34.835938 C 45.6875 32.265625 43.730469 30 41.25 30 C 41.191406 30 41.132812 30.003906 41.074219 30.007812 C 40.660156 28.820312 39.539062 28 38.25 28 C 37.902344 28 37.5625 28.0625 37.238281 28.179688 C 37.074219 25.847656 35.125 24 32.75 24 C 30.917969 24 29.285156 25.128906 28.597656 26.773438 C 27.917969 26.277344 27.09375 26 26.25 26 C 24.042969 26 22.25 27.792969 22.25 30 C 22.25 30.046875 22.25 30.09375 22.253906 30.140625 C 20.152344 30.683594 18.75 32.867188 19.417969 35.15625 Z M 19.417969 35.15625 "/>
<path style=" stroke:none;fill-rule:nonzero;fill:rgb(27.843139%,16.862746%,16.078432%);fill-opacity:1;" d="M 28.75 37 C 28.910156 37 29.589844 37 29.75 37 C 30.027344 37 30.25 37.222656 30.25 37.5 C 30.25 37.777344 30.027344 38 29.75 38 C 29.589844 38 28.910156 38 28.75 38 C 28.472656 38 28.25 37.777344 28.25 37.5 C 28.25 37.222656 28.472656 37 28.75 37 Z M 28.75 37 "/>
<path style=" stroke:none;fill-rule:nonzero;fill:rgb(63.921571%,63.921571%,80.392158%);fill-opacity:1;" d="M 63.40625 46.472656 C 62.984375 46.472656 62.5625 46.445312 62.148438 46.394531 C 62.089844 45.242188 61.4375 44.296875 60.371094 43.847656 L 60.242188 43.789062 L 60.21875 43.789062 C 59.925781 43.6875 59.617188 43.632812 59.308594 43.632812 C 58.601562 43.632812 57.921875 43.902344 57.363281 44.394531 C 56.707031 43.886719 56.121094 43.304688 55.617188 42.65625 C 56.632812 41.507812 56.476562 40.363281 56.144531 39.585938 C 55.683594 38.515625 54.816406 37.917969 53.621094 37.847656 C 53.515625 37.03125 53.511719 36.203125 53.617188 35.386719 C 54.859375 35.316406 55.746094 34.691406 56.199219 33.566406 C 56.496094 32.789062 56.617188 31.664062 55.601562 30.550781 C 56.105469 29.894531 56.691406 29.308594 57.339844 28.804688 C 57.929688 29.351562 58.578125 29.628906 59.273438 29.628906 C 59.652344 29.628906 60.046875 29.542969 60.441406 29.378906 C 61.222656 29.050781 62.136719 28.339844 62.191406 26.785156 C 62.59375 26.734375 63 26.710938 63.40625 26.710938 C 63.820312 26.710938 64.238281 26.734375 64.65625 26.789062 C 64.714844 28.472656 65.746094 29.183594 66.636719 29.480469 C 66.949219 29.585938 67.261719 29.640625 67.5625 29.640625 C 68.273438 29.640625 68.925781 29.359375 69.515625 28.8125 C 70.164062 29.316406 70.742188 29.902344 71.246094 30.558594 C 70.1875 31.703125 70.328125 32.863281 70.652344 33.65625 C 71.113281 34.769531 72.007812 35.378906 73.238281 35.421875 C 73.328125 36.042969 73.316406 37.242188 73.222656 37.886719 C 71.632812 37.964844 70.929688 38.910156 70.613281 39.707031 C 70.316406 40.46875 70.191406 41.585938 71.1875 42.703125 C 70.675781 43.351562 70.085938 43.933594 69.429688 44.433594 C 68.839844 43.910156 68.195312 43.640625 67.515625 43.640625 C 67.074219 43.640625 66.617188 43.757812 66.160156 43.984375 C 65.199219 44.472656 64.683594 45.285156 64.613281 46.402344 C 64.214844 46.449219 63.808594 46.472656 63.40625 46.472656 Z M 63.410156 34.519531 C 62.269531 34.519531 61.339844 35.445312 61.339844 36.589844 C 61.339844 37.730469 62.269531 38.65625 63.410156 38.65625 C 64.550781 38.65625 65.480469 37.730469 65.480469 36.589844 C 65.480469 35.445312 64.550781 34.519531 63.410156 34.519531 Z M 63.410156 34.519531 "/>
<path style=" stroke:none;fill-rule:nonzero;fill:rgb(27.843139%,16.862746%,16.078432%);fill-opacity:1;" d="M 63.40625 27.410156 C 63.609375 27.410156 63.8125 27.414062 64.019531 27.429688 C 64.253906 28.75 65.078125 29.695312 66.414062 30.144531 C 66.796875 30.273438 67.183594 30.339844 67.5625 30.339844 C 68.082031 30.339844 68.78125 30.214844 69.507812 29.714844 C 69.804688 29.976562 70.085938 30.257812 70.347656 30.5625 C 69.648438 31.578125 69.519531 32.742188 70.007812 33.925781 C 70.492188 35.09375 71.394531 35.832031 72.589844 36.050781 C 72.605469 36.429688 72.601562 36.878906 72.582031 37.253906 C 71.351562 37.488281 70.433594 38.25 69.960938 39.449219 C 69.523438 40.574219 69.640625 41.691406 70.289062 42.679688 C 70.019531 42.984375 69.726562 43.273438 69.417969 43.539062 C 68.824219 43.140625 68.1875 42.9375 67.515625 42.9375 C 66.964844 42.9375 66.402344 43.078125 65.839844 43.359375 C 65.101562 43.734375 64.257812 44.441406 63.992188 45.753906 C 63.796875 45.765625 63.601562 45.773438 63.40625 45.773438 C 63.191406 45.773438 62.976562 45.765625 62.765625 45.75 C 62.519531 44.609375 61.753906 43.667969 60.644531 43.199219 L 60.382812 43.089844 L 60.328125 43.089844 C 59.996094 42.984375 59.652344 42.929688 59.304688 42.929688 C 58.617188 42.929688 57.957031 43.132812 57.378906 43.503906 C 57.066406 43.230469 56.777344 42.941406 56.507812 42.636719 C 57.175781 41.625 57.277344 40.46875 56.785156 39.300781 C 56.300781 38.175781 55.421875 37.460938 54.257812 37.222656 C 54.230469 36.820312 54.230469 36.414062 54.257812 36.003906 C 55.464844 35.765625 56.367188 35.007812 56.851562 33.804688 C 57.292969 32.660156 57.160156 31.535156 56.496094 30.554688 C 56.757812 30.253906 57.039062 29.972656 57.34375 29.703125 C 57.9375 30.117188 58.585938 30.324219 59.269531 30.324219 C 59.742188 30.324219 60.226562 30.222656 60.699219 30.019531 C 61.871094 29.53125 62.605469 28.628906 62.820312 27.425781 C 63.019531 27.414062 63.214844 27.410156 63.40625 27.410156 M 63.410156 39.359375 C 64.9375 39.359375 66.179688 38.113281 66.179688 36.589844 C 66.179688 35.0625 64.9375 33.816406 63.410156 33.816406 C 61.882812 33.816406 60.640625 35.0625 60.640625 36.589844 C 60.640625 38.113281 61.882812 39.359375 63.410156 39.359375 M 63.40625 26.007812 C 62.847656 26.007812 62.292969 26.054688 61.742188 26.144531 C 61.589844 26.167969 61.484375 26.300781 61.492188 26.453125 C 61.546875 27.59375 61.109375 28.339844 60.167969 28.730469 C 59.859375 28.863281 59.5625 28.925781 59.277344 28.925781 C 58.679688 28.925781 58.125 28.640625 57.601562 28.070312 C 57.539062 28.003906 57.457031 27.972656 57.375 27.972656 C 57.316406 27.972656 57.253906 27.988281 57.203125 28.03125 C 56.289062 28.691406 55.488281 29.5 54.835938 30.414062 C 54.746094 30.53125 54.761719 30.703125 54.875 30.808594 C 55.6875 31.566406 55.90625 32.378906 55.550781 33.304688 C 55.179688 34.230469 54.472656 34.691406 53.394531 34.691406 C 53.355469 34.691406 53.316406 34.6875 53.277344 34.6875 C 53.273438 34.6875 53.269531 34.6875 53.265625 34.6875 C 53.117188 34.6875 52.992188 34.796875 52.972656 34.945312 C 52.792969 36.046875 52.792969 37.171875 52.980469 38.289062 C 53.007812 38.433594 53.132812 38.539062 53.277344 38.539062 C 53.308594 38.539062 53.339844 38.539062 53.371094 38.539062 C 54.429688 38.539062 55.121094 38.976562 55.503906 39.855469 C 55.898438 40.796875 55.695312 41.628906 54.886719 42.402344 C 54.78125 42.503906 54.761719 42.675781 54.847656 42.796875 C 55.507812 43.707031 56.308594 44.503906 57.214844 45.15625 C 57.226562 45.171875 57.246094 45.179688 57.269531 45.183594 C 57.304688 45.199219 57.34375 45.207031 57.382812 45.207031 C 57.460938 45.207031 57.542969 45.179688 57.605469 45.125 C 57.632812 45.105469 57.652344 45.085938 57.664062 45.070312 C 58.132812 44.589844 58.71875 44.332031 59.308594 44.332031 C 59.566406 44.332031 59.824219 44.382812 60.074219 44.484375 C 60.082031 44.484375 60.09375 44.488281 60.101562 44.488281 C 60.960938 44.855469 61.464844 45.640625 61.449219 46.601562 C 61.449219 46.78125 61.515625 47.003906 61.847656 47.058594 C 62.367188 47.136719 62.886719 47.175781 63.410156 47.175781 C 63.90625 47.175781 64.40625 47.140625 64.898438 47.070312 C 64.941406 47.058594 64.984375 47.050781 65.027344 47.046875 L 65.066406 47.039062 C 65.203125 47.011719 65.3125 46.878906 65.3125 46.734375 C 65.289062 45.707031 65.667969 45.019531 66.476562 44.609375 C 66.835938 44.429688 67.183594 44.339844 67.515625 44.339844 C 68.101562 44.339844 68.652344 44.613281 69.183594 45.164062 C 69.242188 45.222656 69.320312 45.253906 69.398438 45.253906 C 69.460938 45.253906 69.523438 45.234375 69.574219 45.199219 C 70.492188 44.542969 71.296875 43.75 71.957031 42.847656 C 72.042969 42.730469 72.03125 42.558594 71.917969 42.449219 C 71.121094 41.691406 70.910156 40.875 71.269531 39.960938 C 71.636719 39.027344 72.351562 38.578125 73.445312 38.578125 C 73.476562 38.578125 73.507812 38.578125 73.539062 38.578125 C 73.542969 38.578125 73.546875 38.578125 73.550781 38.578125 C 73.683594 38.578125 73.796875 38.488281 73.835938 38.367188 C 74.046875 37.671875 74.0625 35.546875 73.847656 34.925781 C 73.8125 34.804688 73.691406 34.71875 73.566406 34.71875 C 73.558594 34.71875 73.554688 34.71875 73.550781 34.71875 C 73.496094 34.722656 73.445312 34.722656 73.394531 34.722656 C 72.363281 34.722656 71.671875 34.28125 71.300781 33.386719 C 70.910156 32.433594 71.128906 31.601562 71.976562 30.820312 C 72.089844 30.714844 72.109375 30.542969 72.023438 30.421875 C 71.359375 29.496094 70.558594 28.6875 69.644531 28.035156 C 69.59375 27.996094 69.53125 27.976562 69.472656 27.976562 C 69.386719 27.976562 69.304688 28.011719 69.25 28.078125 C 68.738281 28.648438 68.175781 28.9375 67.566406 28.9375 C 67.335938 28.9375 67.101562 28.894531 66.859375 28.816406 C 65.792969 28.457031 65.304688 27.691406 65.359375 26.453125 C 65.363281 26.292969 65.253906 26.160156 65.101562 26.140625 C 64.53125 26.054688 63.96875 26.007812 63.40625 26.007812 Z M 63.410156 37.957031 C 62.652344 37.957031 62.039062 37.347656 62.039062 36.589844 C 62.039062 35.828125 62.652344 35.21875 63.410156 35.21875 C 64.167969 35.21875 64.78125 35.828125 64.78125 36.589844 C 64.78125 37.347656 64.167969 37.957031 63.410156 37.957031 Z M 63.410156 37.957031 "/>
<path style=" stroke:none;fill-rule:nonzero;fill:rgb(46.666667%,46.666667%,67.058825%);fill-opacity:1;" d="M 63.410156 31.609375 C 60.667969 31.609375 58.433594 33.84375 58.433594 36.589844 C 58.433594 39.332031 60.664062 41.566406 63.410156 41.566406 C 66.15625 41.566406 68.390625 39.332031 68.390625 36.589844 C 68.390625 35.558594 68.074219 34.601562 67.535156 33.804688 C 67.332031 33.503906 67.09375 33.222656 66.828125 32.972656 C 66.507812 32.667969 66.148438 32.40625 65.757812 32.195312 C 65.402344 32.007812 65.023438 31.859375 64.628906 31.761719 C 64.238281 31.660156 63.832031 31.609375 63.410156 31.609375 Z M 63.410156 34.296875 C 64.671875 34.296875 65.703125 35.328125 65.703125 36.589844 C 65.703125 37.847656 64.671875 38.878906 63.410156 38.878906 C 62.152344 38.878906 61.121094 37.847656 61.121094 36.589844 C 61.121094 35.328125 62.152344 34.296875 63.410156 34.296875 Z M 63.410156 34.296875 "/>
<path style=" stroke:none;fill-rule:nonzero;fill:rgb(63.921571%,63.921571%,80.392158%);fill-opacity:1;" d="M 38.671875 72.179688 C 37.335938 71.847656 35.988281 71.300781 34.722656 70.558594 C 35.386719 68.855469 35.097656 67.390625 33.871094 66.1875 C 33.101562 65.441406 32.226562 65.066406 31.269531 65.066406 C 30.722656 65.066406 30.144531 65.191406 29.539062 65.433594 C 28.796875 64.199219 28.238281 62.871094 27.886719 61.503906 C 29.601562 60.761719 30.449219 59.503906 30.40625 57.75 C 30.367188 56.0625 29.503906 54.863281 27.835938 54.1875 C 28.175781 52.789062 28.714844 51.460938 29.441406 50.226562 C 30.0625 50.484375 30.660156 50.613281 31.21875 50.613281 C 32.214844 50.613281 33.109375 50.214844 33.882812 49.421875 C 35.097656 48.191406 35.339844 46.703125 34.605469 45.003906 C 35.828125 44.265625 37.152344 43.710938 38.550781 43.347656 C 39.257812 45.074219 40.480469 45.957031 42.191406 45.957031 C 42.3125 45.957031 42.4375 45.953125 42.5625 45.941406 C 44.136719 45.824219 45.292969 44.921875 45.914062 43.328125 C 47.273438 43.664062 48.613281 44.21875 49.863281 44.964844 C 49.140625 46.695312 49.402344 48.191406 50.644531 49.414062 C 51.414062 50.179688 52.300781 50.566406 53.269531 50.566406 C 53.835938 50.566406 54.4375 50.429688 55.0625 50.167969 C 55.589844 50.929688 56.5 53.136719 56.683594 54.113281 C 54.953125 54.851562 54.097656 56.113281 54.128906 57.871094 C 54.167969 59.535156 55.023438 60.730469 56.664062 61.433594 C 56.316406 62.816406 55.765625 64.140625 55.027344 65.371094 C 54.425781 65.136719 53.847656 65.019531 53.308594 65.019531 C 52.210938 65.019531 51.246094 65.496094 50.441406 66.4375 C 49.441406 67.597656 49.253906 68.96875 49.878906 70.515625 C 48.613281 71.265625 47.296875 71.808594 45.917969 72.160156 C 45.296875 70.597656 43.921875 69.652344 42.257812 69.652344 L 42.09375 69.652344 L 42.066406 69.664062 C 40.5625 69.734375 39.277344 70.6875 38.671875 72.179688 Z M 42.253906 54.289062 C 40.347656 54.289062 38.796875 55.839844 38.796875 57.746094 C 38.796875 59.652344 40.347656 61.203125 42.253906 61.203125 C 44.15625 61.203125 45.710938 59.652344 45.710938 57.746094 C 45.710938 55.839844 44.15625 54.289062 42.253906 54.289062 Z M 42.253906 54.289062 "/>
<path style=" stroke:none;fill-rule:nonzero;fill:rgb(27.843139%,16.862746%,16.078432%);fill-opacity:1;" d="M 46.300781 44.164062 C 47.234375 44.4375 48.136719 44.808594 49.003906 45.28125 C 48.324219 47.472656 49.21875 48.992188 50.152344 49.914062 C 51.058594 50.8125 52.109375 51.265625 53.269531 51.265625 C 53.746094 51.265625 54.242188 51.1875 54.753906 51.023438 C 55.128906 51.738281 55.621094 52.914062 55.863281 53.730469 C 53.832031 54.824219 53.402344 56.558594 53.429688 57.890625 C 53.457031 59.136719 53.917969 60.757812 55.835938 61.808594 C 55.554688 62.753906 55.175781 63.664062 54.703125 64.527344 C 54.222656 64.390625 53.753906 64.320312 53.308594 64.320312 C 51.996094 64.320312 50.855469 64.878906 49.914062 65.980469 C 49.160156 66.851562 48.449219 68.265625 49.023438 70.199219 C 48.15625 70.671875 47.246094 71.046875 46.300781 71.328125 C 45.464844 69.847656 43.96875 68.953125 42.257812 68.953125 L 41.878906 68.960938 L 41.847656 68.976562 C 40.339844 69.109375 39.042969 69.984375 38.289062 71.34375 C 37.347656 71.070312 36.4375 70.695312 35.570312 70.234375 C 36.179688 68.085938 35.28125 66.59375 34.351562 65.679688 C 33.449219 64.808594 32.410156 64.367188 31.265625 64.367188 C 30.808594 64.367188 30.339844 64.4375 29.855469 64.582031 C 29.378906 63.714844 28.996094 62.808594 28.714844 61.878906 C 30.71875 60.777344 31.136719 59.054688 31.105469 57.734375 C 31.074219 56.464844 30.605469 54.824219 28.660156 53.800781 C 28.929688 52.859375 29.296875 51.953125 29.757812 51.085938 C 30.257812 51.238281 30.746094 51.316406 31.21875 51.316406 C 32.40625 51.316406 33.472656 50.84375 34.375 49.914062 C 35.292969 48.984375 36.160156 47.464844 35.46875 45.3125 C 36.320312 44.84375 37.222656 44.464844 38.164062 44.179688 C 39.226562 46.203125 40.902344 46.65625 42.191406 46.65625 C 42.328125 46.65625 42.46875 46.652344 42.617188 46.640625 C 44.242188 46.519531 45.519531 45.65625 46.300781 44.164062 M 42.253906 61.902344 C 44.542969 61.902344 46.410156 60.039062 46.410156 57.746094 C 46.410156 55.453125 44.542969 53.589844 42.253906 53.589844 C 39.960938 53.589844 38.09375 55.453125 38.09375 57.746094 C 38.09375 60.039062 39.960938 61.902344 42.253906 61.902344 M 45.742188 42.585938 C 45.558594 42.585938 45.390625 42.703125 45.332031 42.886719 C 44.824219 44.347656 43.878906 45.140625 42.515625 45.242188 C 42.402344 45.253906 42.296875 45.257812 42.191406 45.257812 C 40.714844 45.257812 39.714844 44.484375 39.121094 42.886719 C 39.054688 42.710938 38.890625 42.597656 38.710938 42.597656 C 38.671875 42.597656 38.636719 42.601562 38.601562 42.613281 C 36.960938 43.011719 35.429688 43.660156 34.042969 44.527344 C 33.851562 44.644531 33.78125 44.886719 33.878906 45.09375 C 34.597656 46.601562 34.4375 47.863281 33.382812 48.933594 C 32.742188 49.589844 32.023438 49.914062 31.222656 49.914062 C 30.695312 49.914062 30.128906 49.777344 29.523438 49.496094 C 29.460938 49.46875 29.398438 49.457031 29.335938 49.457031 C 29.183594 49.457031 29.039062 49.535156 28.957031 49.671875 C 28.097656 51.089844 27.46875 52.632812 27.105469 54.246094 C 27.050781 54.460938 27.164062 54.6875 27.378906 54.761719 C 28.917969 55.320312 29.675781 56.308594 29.710938 57.769531 C 29.742188 59.289062 29 60.324219 27.421875 60.9375 C 27.214844 61.015625 27.097656 61.242188 27.152344 61.453125 C 27.539062 63.054688 28.1875 64.578125 29.0625 65.988281 C 29.148438 66.121094 29.296875 66.199219 29.445312 66.199219 C 29.503906 66.199219 29.5625 66.1875 29.621094 66.160156 C 30.210938 65.898438 30.757812 65.765625 31.269531 65.765625 C 32.050781 65.765625 32.75 66.074219 33.382812 66.6875 C 34.449219 67.734375 34.652344 68.972656 33.996094 70.488281 C 33.90625 70.691406 33.980469 70.925781 34.167969 71.039062 C 35.589844 71.902344 37.117188 72.53125 38.722656 72.902344 C 38.753906 72.910156 38.777344 72.910156 38.808594 72.910156 C 38.980469 72.910156 39.160156 72.792969 39.234375 72.632812 C 39.261719 72.59375 39.273438 72.558594 39.289062 72.523438 C 39.792969 71.199219 40.914062 70.371094 42.21875 70.359375 C 42.230469 70.351562 42.246094 70.351562 42.257812 70.351562 C 43.636719 70.351562 44.761719 71.136719 45.289062 72.445312 C 45.378906 72.648438 45.542969 72.871094 45.867188 72.871094 C 45.933594 72.871094 46.007812 72.859375 46.089844 72.839844 C 47.550781 72.46875 48.941406 71.890625 50.230469 71.125 C 50.285156 71.089844 50.34375 71.046875 50.390625 71.019531 L 50.4375 70.988281 C 50.617188 70.871094 50.6875 70.636719 50.605469 70.4375 C 49.992188 69.058594 50.109375 67.898438 50.976562 66.894531 C 51.648438 66.109375 52.417969 65.722656 53.308594 65.722656 C 53.816406 65.722656 54.367188 65.847656 54.960938 66.101562 C 55.011719 66.125 55.070312 66.136719 55.128906 66.136719 C 55.277344 66.136719 55.425781 66.058594 55.511719 65.921875 C 56.386719 64.507812 57.019531 62.980469 57.398438 61.378906 C 57.445312 61.164062 57.335938 60.945312 57.128906 60.871094 C 55.613281 60.285156 54.863281 59.300781 54.828125 57.859375 C 54.800781 56.34375 55.550781 55.300781 57.128906 54.6875 C 57.316406 54.617188 57.425781 54.425781 57.40625 54.234375 C 57.304688 53.164062 56.101562 50.277344 55.46875 49.554688 C 55.382812 49.457031 55.261719 49.40625 55.140625 49.40625 C 55.074219 49.40625 55.011719 49.421875 54.953125 49.449219 C 54.351562 49.726562 53.792969 49.867188 53.269531 49.867188 C 52.480469 49.867188 51.773438 49.550781 51.132812 48.917969 C 50.058594 47.859375 49.886719 46.589844 50.589844 45.054688 C 50.683594 44.847656 50.617188 44.605469 50.425781 44.488281 C 48.996094 43.605469 47.460938 42.972656 45.847656 42.601562 C 45.8125 42.589844 45.777344 42.585938 45.742188 42.585938 Z M 42.253906 60.503906 C 40.730469 60.503906 39.496094 59.269531 39.496094 57.746094 C 39.496094 56.222656 40.730469 54.988281 42.253906 54.988281 C 43.773438 54.988281 45.007812 56.222656 45.007812 57.746094 C 45.007812 59.269531 43.773438 60.503906 42.253906 60.503906 Z M 42.253906 60.503906 "/>
<path style=" stroke:none;fill-rule:nonzero;fill:rgb(46.666667%,46.666667%,67.058825%);fill-opacity:1;" d="M 42.253906 49.035156 C 37.449219 49.035156 33.539062 52.941406 33.539062 57.746094 C 33.539062 62.550781 37.445312 66.460938 42.253906 66.460938 C 47.058594 66.460938 50.964844 62.550781 50.964844 57.746094 C 50.964844 52.941406 47.054688 49.035156 42.253906 49.035156 Z M 42.253906 63.347656 C 39.164062 63.347656 36.652344 60.835938 36.652344 57.746094 C 36.652344 54.660156 39.164062 52.144531 42.253906 52.144531 C 45.339844 52.144531 47.851562 54.660156 47.851562 57.746094 C 47.851562 60.835938 45.339844 63.347656 42.253906 63.347656 Z M 42.253906 63.347656 "/>
<path style=" stroke:none;fill-rule:nonzero;fill:rgb(27.843139%,16.862746%,16.078432%);fill-opacity:1;" d="M 42.75 66.695312 C 42.617188 66.695312 42.507812 66.59375 42.5 66.460938 C 42.492188 66.320312 42.597656 66.203125 42.734375 66.195312 C 44.351562 66.101562 45.898438 65.550781 47.214844 64.597656 C 47.324219 64.515625 47.480469 64.539062 47.5625 64.652344 C 47.644531 64.765625 47.621094 64.921875 47.507812 65.003906 C 46.117188 66.011719 44.476562 66.597656 42.765625 66.695312 C 42.761719 66.695312 42.753906 66.695312 42.75 66.695312 Z M 41.46875 66.675781 C 41.460938 66.675781 41.453125 66.675781 41.445312 66.675781 C 37.558594 66.324219 34.371094 63.53125 33.507812 59.726562 C 33.480469 59.59375 33.5625 59.457031 33.695312 59.425781 C 33.84375 59.398438 33.96875 59.480469 33.996094 59.617188 C 34.808594 63.210938 37.820312 65.84375 41.488281 66.175781 C 41.628906 66.1875 41.726562 66.308594 41.714844 66.445312 C 41.703125 66.578125 41.59375 66.675781 41.46875 66.675781 Z M 48.582031 63.976562 C 48.519531 63.976562 48.460938 63.953125 48.410156 63.910156 C 48.308594 63.8125 48.308594 63.65625 48.402344 63.554688 C 48.925781 63 49.375 62.375 49.734375 61.699219 C 49.796875 61.574219 49.953125 61.53125 50.070312 61.59375 C 50.195312 61.660156 50.238281 61.8125 50.175781 61.933594 C 49.796875 62.648438 49.320312 63.3125 48.765625 63.898438 C 48.714844 63.949219 48.648438 63.976562 48.582031 63.976562 Z M 42.253906 63.597656 C 39.023438 63.597656 36.398438 60.972656 36.398438 57.746094 C 36.398438 54.519531 39.023438 51.894531 42.253906 51.894531 C 45.476562 51.894531 48.101562 54.519531 48.101562 57.746094 C 48.101562 60.972656 45.476562 63.597656 42.253906 63.597656 Z M 42.253906 52.394531 C 39.300781 52.394531 36.898438 54.796875 36.898438 57.746094 C 36.898438 60.699219 39.300781 63.097656 42.253906 63.097656 C 45.203125 63.097656 47.601562 60.699219 47.601562 57.746094 C 47.601562 54.796875 45.203125 52.394531 42.253906 52.394531 Z M 50.582031 60.554688 C 50.558594 60.554688 50.53125 60.550781 50.507812 60.546875 C 50.375 60.503906 50.300781 60.363281 50.34375 60.230469 C 50.589844 59.429688 50.714844 58.59375 50.714844 57.746094 C 50.714844 54.753906 49.105469 51.953125 46.515625 50.4375 C 46.394531 50.367188 46.355469 50.214844 46.425781 50.097656 C 46.496094 49.976562 46.648438 49.9375 46.765625 50.007812 C 49.511719 51.609375 51.214844 54.578125 51.214844 57.746094 C 51.214844 58.640625 51.082031 59.527344 50.820312 60.378906 C 50.785156 60.484375 50.6875 60.554688 50.582031 60.554688 Z M 33.539062 57.996094 C 33.402344 57.996094 33.289062 57.886719 33.289062 57.746094 C 33.289062 52.804688 37.308594 48.785156 42.253906 48.785156 C 42.824219 48.785156 43.402344 48.839844 43.96875 48.949219 C 44.105469 48.976562 44.191406 49.105469 44.164062 49.242188 C 44.140625 49.378906 44.015625 49.472656 43.871094 49.4375 C 43.339844 49.335938 42.792969 49.285156 42.253906 49.285156 C 37.585938 49.285156 33.789062 53.082031 33.789062 57.746094 C 33.789062 57.886719 33.675781 57.996094 33.539062 57.996094 Z M 45.800781 50.039062 C 45.765625 50.039062 45.730469 50.03125 45.695312 50.019531 C 45.410156 49.890625 45.113281 49.777344 44.816406 49.683594 C 44.683594 49.640625 44.613281 49.5 44.652344 49.367188 C 44.695312 49.238281 44.835938 49.164062 44.96875 49.207031 C 45.285156 49.308594 45.597656 49.425781 45.902344 49.5625 C 46.027344 49.617188 46.085938 49.765625 46.027344 49.894531 C 45.984375 49.984375 45.894531 50.039062 45.800781 50.039062 Z M 45.800781 50.039062 "/>
<path style=" stroke:none;fill-rule:nonzero;fill:rgb(27.843139%,16.862746%,16.078432%);fill-opacity:1;" d="M 50.914062 58.285156 C 50.898438 58.285156 50.882812 58.28125 50.863281 58.28125 L 47.773438 57.628906 C 47.640625 57.601562 47.554688 57.46875 47.582031 57.332031 C 47.609375 57.199219 47.738281 57.117188 47.878906 57.140625 L 50.96875 57.789062 C 51.101562 57.820312 51.1875 57.949219 51.160156 58.085938 C 51.136719 58.203125 51.03125 58.285156 50.914062 58.285156 Z M 47.5625 56.160156 C 47.425781 56.160156 47.3125 56.050781 47.3125 55.910156 C 47.3125 55.773438 47.425781 55.660156 47.5625 55.660156 L 50.71875 55.648438 C 50.855469 55.648438 50.96875 55.761719 50.96875 55.898438 C 50.96875 56.039062 50.855469 56.148438 50.71875 56.148438 Z M 68.21875 37.773438 C 68.195312 37.773438 68.171875 37.769531 68.144531 37.761719 L 65.265625 36.855469 C 65.136719 36.8125 65.0625 36.671875 65.105469 36.539062 C 65.144531 36.410156 65.28125 36.335938 65.417969 36.378906 L 68.296875 37.285156 C 68.425781 37.324219 68.5 37.464844 68.457031 37.597656 C 68.425781 37.703125 68.324219 37.773438 68.21875 37.773438 Z M 61.859375 41.558594 C 61.8125 41.558594 61.765625 41.546875 61.726562 41.519531 C 61.609375 41.449219 61.574219 41.292969 61.644531 41.175781 L 63.429688 38.285156 C 63.503906 38.164062 63.660156 38.128906 63.773438 38.203125 C 63.890625 38.273438 63.929688 38.429688 63.855469 38.546875 L 62.070312 41.4375 C 62.023438 41.515625 61.941406 41.558594 61.859375 41.558594 Z M 59.988281 40.21875 C 59.910156 40.21875 59.835938 40.183594 59.785156 40.117188 C 59.703125 40.007812 59.726562 39.851562 59.839844 39.769531 L 62.300781 37.941406 C 62.410156 37.859375 62.566406 37.882812 62.648438 37.992188 C 62.730469 38.101562 62.710938 38.261719 62.597656 38.34375 L 60.136719 40.171875 C 60.09375 40.203125 60.039062 40.21875 59.988281 40.21875 Z M 61.871094 35.714844 C 61.757812 35.714844 61.652344 35.632812 61.628906 35.515625 L 60.964844 32.246094 C 60.9375 32.113281 61.027344 31.980469 61.160156 31.953125 C 61.296875 31.925781 61.429688 32.015625 61.457031 32.148438 L 62.117188 35.414062 C 62.144531 35.550781 62.058594 35.683594 61.921875 35.710938 C 61.90625 35.714844 61.890625 35.714844 61.871094 35.714844 Z M 63.128906 34.917969 C 63.121094 34.917969 63.109375 34.917969 63.101562 34.914062 C 62.964844 34.902344 62.867188 34.777344 62.878906 34.640625 L 63.179688 31.65625 C 63.195312 31.519531 63.296875 31.417969 63.453125 31.429688 C 63.589844 31.445312 63.691406 31.566406 63.675781 31.703125 L 63.378906 34.691406 C 63.363281 34.820312 63.253906 34.917969 63.128906 34.917969 Z M 41.941406 52.417969 C 41.925781 52.417969 41.90625 52.414062 41.886719 52.410156 C 41.753906 52.382812 41.667969 52.246094 41.699219 52.113281 L 42.394531 49.035156 C 42.425781 48.902344 42.554688 48.8125 42.691406 48.847656 C 42.828125 48.878906 42.914062 49.011719 42.882812 49.144531 L 42.1875 52.222656 C 42.160156 52.339844 42.058594 52.417969 41.941406 52.417969 Z M 38.871094 53.382812 C 38.746094 53.382812 38.640625 53.289062 38.625 53.164062 L 38.207031 50.039062 C 38.191406 49.902344 38.285156 49.773438 38.421875 49.757812 C 38.570312 49.742188 38.6875 49.835938 38.703125 49.972656 L 39.121094 53.101562 C 39.136719 53.238281 39.042969 53.363281 38.90625 53.382812 C 38.894531 53.382812 38.882812 53.382812 38.871094 53.382812 Z M 40.378906 52.667969 C 40.238281 52.667969 40.128906 52.554688 40.128906 52.414062 L 40.152344 49.261719 C 40.152344 49.121094 40.265625 49.011719 40.402344 49.011719 C 40.542969 49.015625 40.652344 49.125 40.652344 49.265625 L 40.628906 52.421875 C 40.628906 52.558594 40.519531 52.667969 40.378906 52.667969 Z M 46.726562 54.59375 C 46.601562 54.59375 46.492188 54.496094 46.480469 54.371094 C 46.464844 54.230469 46.566406 54.109375 46.703125 54.09375 L 49.839844 53.765625 C 49.984375 53.75 50.101562 53.851562 50.117188 53.988281 C 50.128906 54.125 50.03125 54.25 49.894531 54.261719 L 46.753906 54.59375 C 46.746094 54.59375 46.734375 54.59375 46.726562 54.59375 Z M 39.820312 66.304688 C 39.777344 66.304688 39.734375 66.296875 39.699219 66.273438 C 39.578125 66.210938 39.535156 66.054688 39.601562 65.933594 L 41.128906 63.175781 C 41.195312 63.054688 41.347656 63.007812 41.46875 63.074219 C 41.589844 63.140625 41.632812 63.296875 41.566406 63.414062 L 40.039062 66.175781 C 39.992188 66.257812 39.90625 66.304688 39.820312 66.304688 Z M 37.488281 65.144531 C 37.410156 65.144531 37.335938 65.109375 37.285156 65.039062 C 37.207031 64.925781 37.234375 64.769531 37.347656 64.691406 L 39.921875 62.871094 C 40.035156 62.789062 40.191406 62.820312 40.273438 62.929688 C 40.351562 63.042969 40.324219 63.199219 40.210938 63.28125 L 37.636719 65.101562 C 37.589844 65.128906 37.539062 65.144531 37.488281 65.144531 Z M 35.789062 63.761719 C 35.699219 63.761719 35.609375 63.710938 35.566406 63.621094 C 35.503906 63.5 35.554688 63.351562 35.679688 63.289062 L 38.507812 61.890625 C 38.632812 61.828125 38.78125 61.878906 38.84375 62.003906 C 38.90625 62.128906 38.855469 62.277344 38.730469 62.339844 L 35.902344 63.738281 C 35.867188 63.753906 35.828125 63.761719 35.789062 63.761719 Z M 35.789062 63.761719 "/>
<path style=" stroke:none;fill-rule:nonzero;fill:rgb(27.843139%,16.862746%,16.078432%);fill-opacity:1;" d="M 34.691406 62.21875 C 34.585938 62.21875 34.488281 62.152344 34.453125 62.050781 C 34.410156 61.917969 34.480469 61.777344 34.613281 61.734375 L 37.605469 60.734375 C 37.734375 60.691406 37.878906 60.761719 37.921875 60.894531 C 37.964844 61.023438 37.894531 61.164062 37.765625 61.210938 L 34.769531 62.207031 C 34.742188 62.214844 34.71875 62.21875 34.691406 62.21875 Z M 34.691406 62.21875 "/>
<path style=" stroke:none;fill-rule:nonzero;fill:rgb(27.843139%,16.862746%,16.078432%);fill-opacity:1;" d="M 63.410156 41.816406 C 60.527344 41.816406 58.183594 39.46875 58.183594 36.585938 C 58.183594 36.449219 58.292969 36.335938 58.433594 36.335938 C 58.570312 36.335938 58.683594 36.449219 58.683594 36.585938 C 58.683594 39.195312 60.804688 41.316406 63.410156 41.316406 C 64.15625 41.316406 64.867188 41.148438 65.53125 40.8125 C 65.65625 40.753906 65.804688 40.800781 65.867188 40.921875 C 65.929688 41.046875 65.882812 41.195312 65.757812 41.257812 C 65.035156 41.625 64.222656 41.816406 63.410156 41.816406 Z M 66.820312 40.464844 C 66.753906 40.464844 66.6875 40.4375 66.636719 40.382812 C 66.542969 40.28125 66.546875 40.125 66.648438 40.03125 C 67.59375 39.140625 68.140625 37.882812 68.140625 36.589844 C 68.140625 35.441406 67.71875 34.328125 66.957031 33.464844 C 66.863281 33.359375 66.875 33.203125 66.980469 33.113281 C 67.082031 33.019531 67.238281 33.03125 67.332031 33.132812 C 68.175781 34.089844 68.640625 35.316406 68.640625 36.585938 C 68.640625 38.019531 68.039062 39.40625 66.988281 40.394531 C 66.941406 40.441406 66.882812 40.464844 66.820312 40.464844 Z M 63.410156 39.128906 C 62.011719 39.128906 60.871094 37.988281 60.871094 36.589844 C 60.871094 35.1875 62.011719 34.046875 63.410156 34.046875 C 64.8125 34.046875 65.949219 35.1875 65.949219 36.589844 C 65.949219 37.988281 64.8125 39.128906 63.410156 39.128906 Z M 63.410156 34.546875 C 62.285156 34.546875 61.371094 35.464844 61.371094 36.589844 C 61.371094 37.714844 62.285156 38.628906 63.410156 38.628906 C 64.535156 38.628906 65.449219 37.714844 65.449219 36.589844 C 65.449219 35.464844 64.535156 34.546875 63.410156 34.546875 Z M 59.171875 34.226562 C 59.128906 34.226562 59.082031 34.214844 59.039062 34.191406 C 58.925781 34.117188 58.886719 33.964844 58.960938 33.847656 C 59.921875 32.289062 61.585938 31.359375 63.410156 31.359375 C 63.847656 31.359375 64.28125 31.414062 64.703125 31.523438 C 64.839844 31.554688 64.917969 31.691406 64.886719 31.824219 C 64.851562 31.960938 64.714844 32.039062 64.582031 32.007812 C 64.199219 31.910156 63.804688 31.859375 63.410156 31.859375 C 61.761719 31.859375 60.257812 32.703125 59.386719 34.109375 C 59.339844 34.1875 59.257812 34.226562 59.171875 34.226562 Z M 66.460938 32.90625 C 66.40625 32.90625 66.355469 32.890625 66.308594 32.855469 C 66.050781 32.652344 65.773438 32.480469 65.488281 32.339844 C 65.363281 32.277344 65.3125 32.128906 65.371094 32.003906 C 65.433594 31.878906 65.582031 31.828125 65.707031 31.890625 C 66.023438 32.046875 66.332031 32.238281 66.617188 32.460938 C 66.726562 32.542969 66.746094 32.699219 66.660156 32.808594 C 66.609375 32.875 66.535156 32.90625 66.460938 32.90625 Z M 66.460938 32.90625 "/>
</g>
</svg>
